<?xml version="1.0" encoding="UTF-8"?>
<svg width="19px" height="22px" viewBox="0 0 19 22" version="1.1" xmlns="http://www.w3.org/2000/svg" xmlns:xlink="http://www.w3.org/1999/xlink">
    <!-- Generator: Sketch 52.6 (67491) - http://www.bohemiancoding.com/sketch -->
    <title>icon_notifications</title>
    <desc>Created with Sketch.</desc>
    <g id="Symbols" stroke="none" stroke-width="1" fill="none" fill-rule="evenodd" stroke-linecap="round">
        <g id="icon/nav/active/notifs" transform="translate(-3.000000, -1.000000)" stroke="#262261" stroke-width="1.25">
            <g id="icon_notifications" transform="translate(3.000000, 2.000000)">
                <path d="M7.69764706,1.65465714 C7.69764706,0.741342175 8.36864425,0 9.19764706,0 C10.0255965,0 10.6976471,0.741342175 10.6976471,1.65465714" id="Stroke-1"></path>
                <path d="M11.6927147,18.0525238 C11.6906076,19.1578979 10.5696643,20.0525238 9.18955559,20.0525238 C7.80839333,20.0525238 6.6906106,19.1578979 6.69271466,18.0525238" id="Stroke-3"></path>
                <path d="M9.16170402,2.14086667 C12.5273805,2.14086667 14.7195473,4.96144911 14.9871159,8.1862811 C15.2504709,11.4039853 16.7389532,12.0515991 17.3678448,12.7735461 C17.8745398,13.6757251 17.5722083,14.9536424 17.5722083,15.5269233 C15.5201464,16.6358093 12.837086,17.1408667 9.16170402,17.1408667 C5.48632208,17.1408667 2.80326166,16.6358093 0.751199744,15.5269233 C0.751199744,14.9536424 0.44886824,13.6757251 0.955563199,12.7735461 C1.58445486,12.0515991 3.07293715,11.4039853 3.33629212,8.1862811 C3.60386076,4.96144911 5.79602752,2.14086667 9.16170402,2.14086667 Z" id="Stroke-5" fill="#0098DB"></path>
            </g>
        </g>
    </g>
</svg>